<svg xmlns="http://www.w3.org/2000/svg" viewBox="0 0 802.37 201.61"><defs><style>.cls-1{fill:#2c7be5;}.cls-2{fill:#5e6e82;}.cls-3{fill:#0b1727;}</style></defs><title>BIRA</title><g id="Camada_2" data-name="Camada 2"><g id="Camada_1-2" data-name="Camada 1"><path class="cls-1" d="M444.46,143.56q0,28-15.15,43t-42.33,15H359.79q-33.41,0-47.43-11.61t-14-40.21V0h85.23Q412.46,0,427,14.44t14.59,40.78q0,15.28-7.79,26.05T416.71,96.56Q444.46,109.58,444.46,143.56Zm-64-64.84q21.81,0,21.81-21.8T380.46,35.11H337.71V78.72Zm24.64,62.86q0-13.59-4.81-20.53T383,114.11h-45.3v31.72q0,11.61,5.8,16.14t19.12,4.53H383Q405.11,166.5,405.1,141.58Z"/><path class="cls-1" d="M496.83,201.61H457.47V0h39.36Z"/><path class="cls-2" d="M802.37,201.61h-41L750,166.78H682.31q-3.84,12.41-7.69,24.81-12.51-22.5-25-45L694.77,17Q699,7.38,704.26,3.68A21.85,21.85,0,0,1,717.14,0q7.65,0,12.32,3.4T737.81,17Zm-61.44-68L717.14,53.8l-24.92,79.85Z"/><path class="cls-1" d="M664.84,201.61H619.25l-39.36-74.75H551.58v74.75H512.22V43.32q0-22.65,10.48-33T557.81,0h33.41q30,0,47.71,18.26t17.7,46.3q0,20.39-10.62,35.25t-26.19,20.53ZM609.2,85.37q8.07-8.62,8.07-21.52T609.48,43q-7.79-7.92-20.81-7.93H569.13q-17.55,0-17.55,17.84V94h37.09Q601.14,94,609.2,85.37Z"/><path class="cls-3" d="M130.05,28.86a8.41,8.41,0,0,1-2.19,6.24,8.39,8.39,0,0,1-6.13,2.17h-3.94q-4.83,0-6.87-1.68t-2-5.82V8.08h12.35c2.78,0,4.88.69,6.29,2.09a7.92,7.92,0,0,1,2.11,5.9,6.24,6.24,0,0,1-1.13,3.77A6.82,6.82,0,0,1,126,22.06C128.71,23.32,130.05,25.58,130.05,28.86Zm-9.26-9.39q3.15,0,3.15-3.15t-3.15-3.16h-6.2v6.31Zm3.56,9.11a5.27,5.27,0,0,0-.69-3,2.85,2.85,0,0,0-2.51-1h-6.56v4.59a2.82,2.82,0,0,0,.84,2.34,4.55,4.55,0,0,0,2.77.65h3C123.29,32.18,124.35,31,124.35,28.58Z"/><path class="cls-3" d="M153,37.27h-4l-1.23-2.79-6.56,3a6.52,6.52,0,0,1-4.77-2,8,8,0,0,1-2-5.93V13.86h5.33V28.41c0,2.6,1,3.9,3.11,3.9l4.8-2.59V13.86H153Z"/><path class="cls-3" d="M175,30.79v.62A5.78,5.78,0,0,1,172.42,36a10.43,10.43,0,0,1-5.88,1.56q-5.21,0-7.3-1.89a6.47,6.47,0,0,1-1.92-5.08v-.5h4.83a3,3,0,0,0,1,2.59,6.16,6.16,0,0,0,3.4.7c2.19,0,3.28-.8,3.28-2.38a2.76,2.76,0,0,0-1.15-2.63,4,4,0,0,0-1.35-.49l-4.14-.7q-5.42-.86-5.41-6.76a6.06,6.06,0,0,1,2.4-5.11,9.77,9.77,0,0,1,6.08-1.82q8.42,0,8.41,7.26v.53H170a3.27,3.27,0,0,0-1-2.62,4.34,4.34,0,0,0-2.64-.7,4.06,4.06,0,0,0-2.57.68,1.92,1.92,0,0,0-.86,1.49q0,2.34,1.89,2.67l5,.9C173.28,24.39,175,26.75,175,30.79Z"/><path class="cls-3" d="M195.57,30.79v.62A5.78,5.78,0,0,1,193,36a10.43,10.43,0,0,1-5.88,1.56q-5.21,0-7.3-1.89a6.47,6.47,0,0,1-1.92-5.08v-.5h4.83a3,3,0,0,0,1,2.59,6.16,6.16,0,0,0,3.4.7c2.19,0,3.28-.8,3.28-2.38a2.76,2.76,0,0,0-1.15-2.63,4,4,0,0,0-1.35-.49l-4.14-.7q-5.41-.86-5.41-6.76a6.06,6.06,0,0,1,2.4-5.11,9.77,9.77,0,0,1,6.08-1.82q8.42,0,8.41,7.26v.53h-4.63a3.27,3.27,0,0,0-1-2.62,4.34,4.34,0,0,0-2.64-.7,4.06,4.06,0,0,0-2.57.68,1.92,1.92,0,0,0-.86,1.49q0,2.34,1.89,2.67l5,.9C193.82,24.39,195.57,26.75,195.57,30.79Z"/><path class="cls-3" d="M202.74,4.92a3.66,3.66,0,0,1,2.5.59A3.75,3.75,0,0,1,205.82,8a3.66,3.66,0,0,1-.6,2.5,3.71,3.71,0,0,1-2.5.59,3.6,3.6,0,0,1-2.5-.61,3.73,3.73,0,0,1-.59-2.5,3.66,3.66,0,0,1,.59-2.49A3.78,3.78,0,0,1,202.74,4.92Zm2.63,32.35H200V14.72h5.33Z"/><path class="cls-3" d="M229.47,37.27h-5.33v-15a3.59,3.59,0,0,0-.82-2.74,3.25,3.25,0,0,0-2.29-.74l-4.8,2V37.27H210.9V13.86h4l1.23,2.79,6.56-3a6.53,6.53,0,0,1,4.77,2,8,8,0,0,1,2,5.93Z"/><path class="cls-3" d="M252.35,26.81H238.7a8.5,8.5,0,0,0,1,4.68c.67,1,2,1.47,4,1.47a3.4,3.4,0,0,0,2.91-1.25,4,4,0,0,0,.95-2.4h4.79q0,4.4-2.35,6.44a9.17,9.17,0,0,1-6.24,2,13.2,13.2,0,0,1-6-1.11q-4.4-2.25-4.39-12,0-5.77,2.5-8.46t7.63-2.69q8.9,0,8.89,9.88C252.43,24.16,252.41,25.28,252.35,26.81Zm-13.53-3.64h8.78a6.14,6.14,0,0,0-1-3.94A3.85,3.85,0,0,0,243.43,18a4.57,4.57,0,0,0-3.36,1.25A5.36,5.36,0,0,0,238.82,23.17Z"/><path class="cls-3" d="M273.34,30.79v.62a5.77,5.77,0,0,1-2.6,4.63,10.43,10.43,0,0,1-5.88,1.56q-5.22,0-7.3-1.89a6.44,6.44,0,0,1-1.93-5.08v-.5h4.84a3,3,0,0,0,1,2.59,6.2,6.2,0,0,0,3.41.7c2.18,0,3.28-.8,3.28-2.38A2.78,2.78,0,0,0,267,28.41a4.18,4.18,0,0,0-1.35-.49l-4.15-.7q-5.4-.86-5.41-6.76a6.06,6.06,0,0,1,2.4-5.11,9.82,9.82,0,0,1,6.09-1.82q8.4,0,8.4,7.26v.53h-4.63a3.24,3.24,0,0,0-1-2.62,4.35,4.35,0,0,0-2.65-.7,4,4,0,0,0-2.56.68,1.92,1.92,0,0,0-.86,1.49c0,1.56.63,2.45,1.88,2.67l5,.9C271.59,24.39,273.34,26.75,273.34,30.79Z"/><path class="cls-3" d="M90.49,86.47h-5.7V57.28h5.7Z"/><path class="cls-3" d="M115,86.47h-5.32v-15a3.64,3.64,0,0,0-.82-2.74,3.3,3.3,0,0,0-2.3-.74l-4.8,2V86.47H96.47V63.06h4l1.23,2.79,6.56-3a6.57,6.57,0,0,1,4.78,2,8,8,0,0,1,2,5.93Z"/><path class="cls-3" d="M130.38,86.47h-3.32a5.8,5.8,0,0,1-4.61-1.8,6.3,6.3,0,0,1-1.58-4.31V68.06h-2.26V64h2.26V59.41h5.33V64H130v4.06H126.2V80c0,1.29.61,1.93,1.84,1.93h2.34Z"/><path class="cls-3" d="M152.35,76H138.7a8.49,8.49,0,0,0,1,4.68c.67,1,2,1.47,4,1.47a3.4,3.4,0,0,0,2.91-1.25,4.07,4.07,0,0,0,.94-2.4h4.8q0,4.39-2.36,6.44a9.14,9.14,0,0,1-6.23,2,13.22,13.22,0,0,1-6-1.11q-4.38-2.25-4.39-12c0-3.85.84-6.67,2.5-8.46s4.21-2.69,7.63-2.69q8.9,0,8.9,9.88Q152.44,73.72,152.35,76Zm-13.52-3.64h8.77a6.08,6.08,0,0,0-1-3.94,3.84,3.84,0,0,0-3.13-1.23,4.54,4.54,0,0,0-3.36,1.25A5.32,5.32,0,0,0,138.83,72.37Z"/><path class="cls-3" d="M168.75,63.22l5.33-.33V85.4a7.82,7.82,0,0,1-2.19,6q-2.19,2.07-6.5,2.07a12.42,12.42,0,0,1-5.82-1.31,5.08,5.08,0,0,1-2.09-2A6,6,0,0,1,156.7,87l5-.24a1.76,1.76,0,0,0,.82,1.64,5.91,5.91,0,0,0,2.81.49A3.18,3.18,0,0,0,168,88a4.83,4.83,0,0,0,.71-2.83l.21-3.53-5.74,3.08q-4.71,0-6.36-3.2a14.92,14.92,0,0,1-1.47-6.93,22.06,22.06,0,0,1,.74-6.89,6.15,6.15,0,0,1,2.21-3.2,8.58,8.58,0,0,1,4.84-1.23Zm0,13.74V68H164.7a3.28,3.28,0,0,0-3.16,1.56,9,9,0,0,0-.86,4.34,6.73,6.73,0,0,0,.88,4,3.7,3.7,0,0,0,3.14,1.17Z"/><path class="cls-3" d="M192.45,63.14,191,68.39a3.64,3.64,0,0,0-1.4-.25,10.46,10.46,0,0,0-5,1.77V86.47h-5.33V63.06h4l1.23,2,5.65-2.34c.28,0,.65,0,1.11,0A2.14,2.14,0,0,1,192.45,63.14Z"/><path class="cls-3" d="M212.13,86.47h-3.56l-1.65-2.83-5.69,3.07c-3.18,0-5.31-1.14-6.4-3.44a12.81,12.81,0,0,1-1.13-3.63,26.65,26.65,0,0,1-.3-4.06c0-1.4,0-2.44,0-3.11s.09-1.45.2-2.34a11.65,11.65,0,0,1,.47-2.23A10.11,10.11,0,0,1,195,66a5.09,5.09,0,0,1,1.4-1.54,8.35,8.35,0,0,1,4.8-1.27h5.61l5.33-.33ZM206.8,79V68h-4.06a3.2,3.2,0,0,0-3.13,1.72,11.66,11.66,0,0,0-.88,5.15,9.79,9.79,0,0,0,.84,4.81,3.4,3.4,0,0,0,3.17,1.4Z"/><path class="cls-3" d="M227.92,86.47H224.6a5.82,5.82,0,0,1-4.62-1.8,6.34,6.34,0,0,1-1.57-4.31V68.06h-2.26V64h2.26V59.41h5.33V64h3.77v4.06h-3.77V80c0,1.29.61,1.93,1.84,1.93h2.34Z"/><path class="cls-3" d="M249.89,76H236.24a8.5,8.5,0,0,0,1,4.68c.67,1,2,1.47,4,1.47a3.4,3.4,0,0,0,2.91-1.25,4,4,0,0,0,.95-2.4h4.79q0,4.39-2.35,6.44a9.17,9.17,0,0,1-6.24,2,13.2,13.2,0,0,1-6-1.11q-4.4-2.25-4.39-12,0-5.78,2.5-8.46t7.63-2.69q8.89,0,8.89,9.88C250,73.36,250,74.48,249.89,76Zm-13.53-3.64h8.78a6.14,6.14,0,0,0-1-3.94A3.84,3.84,0,0,0,241,67.2a4.58,4.58,0,0,0-3.37,1.25A5.36,5.36,0,0,0,236.36,72.37Z"/><path class="cls-3" d="M271.83,86.47h-3.57l-1.64-2.83-5.7,3.07c-3.17,0-5.3-1.14-6.39-3.44a12.5,12.5,0,0,1-1.13-3.63,25.41,25.41,0,0,1-.31-4.06c0-1.4,0-2.44,0-3.11s.1-1.45.21-2.34a10.93,10.93,0,0,1,.47-2.23,9.5,9.5,0,0,1,.88-1.87,5.06,5.06,0,0,1,1.39-1.54,8.35,8.35,0,0,1,4.8-1.27h5.62V55.64h5.33ZM266.5,79V68h-4.06a3.21,3.21,0,0,0-3.14,1.72,11.66,11.66,0,0,0-.88,5.15,9.91,9.91,0,0,0,.84,4.81,3.41,3.41,0,0,0,3.18,1.4Z"/><path class="cls-3" d="M70.56,135.67H67l-1.64-2.83-5.7,3.08q-4.76,0-6.39-3.45a12.81,12.81,0,0,1-1.13-3.63,26.63,26.63,0,0,1-.31-4.06c0-1.4,0-2.44,0-3.11s.1-1.45.21-2.34a11.65,11.65,0,0,1,.47-2.23,10.42,10.42,0,0,1,.88-1.87,5,5,0,0,1,1.4-1.54,8.34,8.34,0,0,1,4.79-1.27h5.62l5.33-.33Zm-5.33-7.46v-11H61.17A3.2,3.2,0,0,0,58,118.94a11.64,11.64,0,0,0-.89,5.15A9.93,9.93,0,0,0,58,128.9a3.41,3.41,0,0,0,3.18,1.4Z"/><path class="cls-3" d="M94.5,135.67H89.17v-15a3.6,3.6,0,0,0-.82-2.74,3.25,3.25,0,0,0-2.29-.74l-4.8,2v16.44H75.93V112.26h4l1.23,2.79,6.56-3a6.53,6.53,0,0,1,4.77,2,8,8,0,0,1,2,5.93Z"/><path class="cls-3" d="M116.85,135.67h-3.57l-1.64-2.83-5.7,3.08q-4.75,0-6.39-3.45a12.81,12.81,0,0,1-1.13-3.63,25.41,25.41,0,0,1-.31-4.06c0-1.4,0-2.44,0-3.11s.1-1.45.21-2.34a11.65,11.65,0,0,1,.47-2.23,9.77,9.77,0,0,1,.88-1.87,5,5,0,0,1,1.4-1.54,8.29,8.29,0,0,1,4.79-1.27h5.62v-7.58h5.33Zm-5.33-7.46v-11h-4.06a3.22,3.22,0,0,0-3.14,1.72,11.8,11.8,0,0,0-.88,5.15,9.93,9.93,0,0,0,.84,4.81,3.41,3.41,0,0,0,3.18,1.4Z"/><path class="cls-3" d="M154.86,135.67h-6.61l-5.69-10.83h-4.1v10.83h-5.7V112.75q0-3.28,1.51-4.78t5.09-1.49h4.84a8.94,8.94,0,0,1,9.47,9.34,8.61,8.61,0,0,1-1.54,5.11,8,8,0,0,1-3.79,3Zm-8.06-16.83a4.39,4.39,0,0,0,1.17-3.12,4.11,4.11,0,0,0-1.13-3,4,4,0,0,0-3-1.15H141a2.26,2.26,0,0,0-2.54,2.58v6h5.37A3.9,3.9,0,0,0,146.8,118.84Z"/><path class="cls-3" d="M176.71,125.21H163.05a8.49,8.49,0,0,0,1,4.68c.67,1,2,1.47,4,1.47a3.4,3.4,0,0,0,2.91-1.25,4,4,0,0,0,.94-2.4h4.8q0,4.39-2.36,6.44a9.14,9.14,0,0,1-6.23,2,13.25,13.25,0,0,1-6-1.11q-4.38-2.25-4.38-12,0-5.78,2.5-8.46c1.66-1.79,4.21-2.69,7.62-2.69q8.9,0,8.9,9.88C176.79,122.56,176.76,123.68,176.71,125.21Zm-13.53-3.65H172a6.13,6.13,0,0,0-1-3.93,3.86,3.86,0,0,0-3.14-1.23,4.54,4.54,0,0,0-3.36,1.25A5.31,5.31,0,0,0,163.18,121.56Z"/><path class="cls-3" d="M200.32,123.33q0,9.13-4.71,11.68a9.89,9.89,0,0,1-4.72,1L187,133.5v9.14h-5.33V112.42h10.49q4.75,0,6.48,2.69T200.32,123.33Zm-5.33.82q0-6.93-4.42-6.93H187v10.86l3.61,2.34a3.82,3.82,0,0,0,3.4-1.5A8.64,8.64,0,0,0,195,124.15Z"/><path class="cls-3" d="M222.59,123.86q0,7.59-2.87,10.17c-1.62,1.47-3.95,2.21-7,2.21q-5.86,0-7.92-3.44-1.92-3.17-1.92-8.94,0-5.42,1.92-8.49,2.13-3.44,7.77-3.44t7.83,3C221.85,117,222.59,119.92,222.59,123.86Zm-5.33,1.23V123a9.86,9.86,0,0,0-.88-4.63c-.59-1.07-1.82-1.6-3.67-1.6q-4.52,0-4.51,6.06v2.14c0,4.34,1.5,6.52,4.51,6.52,1.94,0,3.21-.73,3.81-2.18A10.6,10.6,0,0,0,217.26,125.09Z"/><path class="cls-3" d="M239.27,112.34l-1.47,5.25a3.64,3.64,0,0,0-1.4-.25,10.6,10.6,0,0,0-5,1.76v16.57H226V112.26h4l1.23,2L236.9,112a10.78,10.78,0,0,1,1.1,0A2.14,2.14,0,0,1,239.27,112.34Z"/><path class="cls-3" d="M252.84,135.67h-3.32a5.77,5.77,0,0,1-4.61-1.81,6.31,6.31,0,0,1-1.58-4.3v-12.3h-2.25V113.2h2.25v-4.59h5.33v4.59h3.77v4.06h-3.77v12c0,1.29.62,1.93,1.85,1.93h2.33Z"/><path class="cls-3" d="M273.34,129.19v.62a5.77,5.77,0,0,1-2.6,4.63,10.43,10.43,0,0,1-5.88,1.56c-3.47,0-5.91-.63-7.3-1.89a6.44,6.44,0,0,1-1.93-5.08v-.49h4.84a3,3,0,0,0,1,2.58,6.21,6.21,0,0,0,3.41.69c2.18,0,3.28-.79,3.28-2.37a2.79,2.79,0,0,0-1.15-2.63,4.18,4.18,0,0,0-1.35-.49l-4.14-.7q-5.42-.86-5.42-6.76a6.06,6.06,0,0,1,2.4-5.11,9.82,9.82,0,0,1,6.09-1.82q8.4,0,8.4,7.26v.53h-4.63a3.24,3.24,0,0,0-1-2.62,4.35,4.35,0,0,0-2.65-.7,4,4,0,0,0-2.56.68,1.92,1.92,0,0,0-.86,1.49c0,1.56.63,2.45,1.88,2.67l5,.9C271.59,122.79,273.34,125.15,273.34,129.19Z"/><path class="cls-3" d="M24.93,184.87H19l-1.64-5H7.54l-1.59,5H0l9.35-26.73a4.63,4.63,0,0,1,1.37-1.93,3.22,3.22,0,0,1,1.87-.53,2.93,2.93,0,0,1,1.78.49,4.19,4.19,0,0,1,1.21,2ZM16,175l-3.44-11.56L9,175Z"/><path class="cls-3" d="M45.55,184.87H42L40.34,182l-5.7,3.08q-4.76,0-6.39-3.45A12.81,12.81,0,0,1,27.12,178a26.63,26.63,0,0,1-.31-4.06c0-1.4,0-2.44,0-3.11s.1-1.45.21-2.34a11.65,11.65,0,0,1,.47-2.23,10.42,10.42,0,0,1,.88-1.87,5,5,0,0,1,1.4-1.54,8.32,8.32,0,0,1,4.79-1.27h5.62V154h5.33Zm-5.33-7.46v-11H36.16A3.22,3.22,0,0,0,33,168.14a11.8,11.8,0,0,0-.88,5.15A9.93,9.93,0,0,0,33,178.1a3.41,3.41,0,0,0,3.18,1.4Z"/><path class="cls-3" d="M81.71,184.87H76.38V170.31a6.41,6.41,0,0,0-.51-3,1.91,1.91,0,0,0-1.78-.86l-4.8,2v16.44H64V170.31q0-3.88-2.71-3.89l-4.38,2v16.44H51.54V161.46h4l1.23,2.79,6.15-3a5.21,5.21,0,0,1,4.84,3.12l7.63-3.12a5.53,5.53,0,0,1,4.77,2.15,9.58,9.58,0,0,1,1.58,5.81Z"/><path class="cls-3" d="M90.16,152.52a3.68,3.68,0,0,1,2.5.59,3.82,3.82,0,0,1,.57,2.51,3.73,3.73,0,0,1-.59,2.5,3.73,3.73,0,0,1-2.5.59,3.58,3.58,0,0,1-2.5-.61,3.73,3.73,0,0,1-.6-2.51,3.64,3.64,0,0,1,.6-2.48A3.74,3.74,0,0,1,90.16,152.52Zm2.62,32.35H87.45V162.32h5.33Z"/><path class="cls-3" d="M116.89,184.87h-5.33v-15a3.6,3.6,0,0,0-.82-2.74,3.33,3.33,0,0,0-2.3-.74l-4.79,2v16.44H98.32V161.46h4l1.23,2.79,6.56-3a6.55,6.55,0,0,1,4.78,2,8,8,0,0,1,2,5.93Z"/><path class="cls-3" d="M124.92,152.52a3.71,3.71,0,0,1,2.51.59,3.82,3.82,0,0,1,.57,2.51,2.45,2.45,0,0,1-3.1,3.09,3.6,3.6,0,0,1-2.5-.61,3.8,3.8,0,0,1-.59-2.51,3.7,3.7,0,0,1,.59-2.48A3.78,3.78,0,0,1,124.92,152.52Zm2.63,32.35h-5.33V162.32h5.33Z"/><path class="cls-3" d="M149.57,178.39V179a5.81,5.81,0,0,1-2.61,4.63,10.43,10.43,0,0,1-5.88,1.56c-3.47,0-5.91-.63-7.3-1.89a6.48,6.48,0,0,1-1.93-5.08v-.49h4.84a3,3,0,0,0,1,2.58,6.17,6.17,0,0,0,3.4.69c2.19,0,3.28-.79,3.28-2.37a2.77,2.77,0,0,0-1.15-2.63,4.1,4.1,0,0,0-1.35-.49l-4.14-.7q-5.41-.85-5.42-6.76a6.06,6.06,0,0,1,2.4-5.11,9.82,9.82,0,0,1,6.09-1.82q8.4,0,8.41,7.26v.53h-4.64a3.24,3.24,0,0,0-1-2.62,4.35,4.35,0,0,0-2.65-.7,4.05,4.05,0,0,0-2.56.68,1.92,1.92,0,0,0-.86,1.49q0,2.34,1.89,2.67l5,.9Q149.57,172.33,149.57,178.39Z"/><path class="cls-3" d="M164,184.87h-3.32a5.8,5.8,0,0,1-4.62-1.81,6.3,6.3,0,0,1-1.57-4.3v-12.3h-2.26V162.4h2.26v-4.59h5.33v4.59h3.77v4.06h-3.77v12c0,1.29.61,1.93,1.84,1.93H164Z"/><path class="cls-3" d="M180.89,161.54l-1.48,5.25a3.59,3.59,0,0,0-1.39-.25,10.53,10.53,0,0,0-5,1.76v16.57h-5.33V161.46h4l1.23,2,5.66-2.34a10.87,10.87,0,0,1,1.11,0A2.16,2.16,0,0,1,180.89,161.54Z"/><path class="cls-3" d="M200.57,184.87H197L195.36,182l-5.7,3.08q-4.75,0-6.39-3.45a12.5,12.5,0,0,1-1.13-3.63,25.41,25.41,0,0,1-.31-4.06c0-1.4,0-2.44,0-3.11s.1-1.45.21-2.34a10.93,10.93,0,0,1,.47-2.23,9.77,9.77,0,0,1,.88-1.87,5.06,5.06,0,0,1,1.39-1.54,8.35,8.35,0,0,1,4.8-1.27h5.62l5.33-.33Zm-5.33-7.46v-11h-4.06a3.22,3.22,0,0,0-3.14,1.72,11.8,11.8,0,0,0-.88,5.15,9.93,9.93,0,0,0,.84,4.81,3.41,3.41,0,0,0,3.18,1.4Z"/><path class="cls-3" d="M216.35,184.87H213a5.77,5.77,0,0,1-4.61-1.81,6.31,6.31,0,0,1-1.58-4.3v-12.3h-2.25V162.4h2.25v-4.59h5.33v4.59h3.77v4.06h-3.77v12c0,1.29.62,1.93,1.85,1.93h2.33Z"/><path class="cls-3" d="M223.49,152.52a3.68,3.68,0,0,1,2.5.59,3.82,3.82,0,0,1,.57,2.51,2.44,2.44,0,0,1-3.09,3.09,3.58,3.58,0,0,1-2.5-.61,3.73,3.73,0,0,1-.6-2.51,3.64,3.64,0,0,1,.6-2.48A3.74,3.74,0,0,1,223.49,152.52Zm2.62,32.35h-5.33V162.32h5.33Z"/><path class="cls-3" d="M250.06,173.06q0,7.59-2.87,10.17c-1.62,1.48-3.95,2.21-7,2.21q-5.85,0-7.91-3.44c-1.28-2.11-1.93-5.08-1.93-8.94,0-3.61.65-6.44,1.93-8.49q2.13-3.44,7.77-3.44t7.83,3C249.32,166.15,250.06,169.13,250.06,173.06Zm-5.33,1.23v-2.13a9.72,9.72,0,0,0-.89-4.63c-.58-1.07-1.81-1.6-3.67-1.6-3,0-4.51,2-4.51,6.07v2.13c0,4.34,1.51,6.52,4.51,6.52,1.94,0,3.22-.73,3.82-2.18A10.6,10.6,0,0,0,244.73,174.29Z"/><path class="cls-3" d="M272.48,184.87h-5.33v-15a3.6,3.6,0,0,0-.82-2.74,3.3,3.3,0,0,0-2.29-.74l-4.8,2v16.44h-5.33V161.46h4l1.23,2.79,6.56-3a6.53,6.53,0,0,1,4.77,2,8,8,0,0,1,2,5.93Z"/></g></g></svg>