<svg xmlns="http://www.w3.org/2000/svg" viewBox="0 0 199.49 31.69"><defs><style>.cls-1{fill:#1d1d1b;}</style></defs><title>TI</title><g id="Camada_2" data-name="Camada 2"><g id="Camada_1-2" data-name="Camada 1"><path class="cls-1" d="M15.89,31.69a15.58,15.58,0,0,1-4-.51l.65-2.53A13.21,13.21,0,0,0,28.44,11.86,13.2,13.2,0,0,0,11.86,3.24a13.21,13.21,0,0,0-9,14.87l-2.58.45A15.83,15.83,0,0,1,23.14,1.79a15.83,15.83,0,0,1,6.75,21.35A15.75,15.75,0,0,1,15.89,31.69Z"/><path class="cls-1" d="M27.89,15.49a11.77,11.77,0,0,0-.71-4l-2.46.88A9.34,9.34,0,1,1,6.59,15.49a9.28,9.28,0,0,1,4.52-8L9.75,5.25A12,12,0,1,0,27.89,15.49Z"/><path class="cls-1" d="M23.37,17.45l-2.53-.67a5.08,5.08,0,1,1-6.14-6.22L14.08,8a7.7,7.7,0,1,0,9.29,9.43Z"/><polygon class="cls-1" points="37.8 16.83 39.56 16.83 39.56 9.72 42.17 9.72 42.17 8.29 35.23 8.29 35.23 9.72 37.8 9.72 37.8 16.83"/><polygon class="cls-1" points="44.63 13.13 48.01 13.13 48.01 11.75 44.63 11.75 44.63 9.72 48.58 9.72 48.58 8.29 42.88 8.29 42.88 16.83 48.6 16.83 48.6 15.41 44.63 15.41 44.63 13.13"/><path class="cls-1" d="M52.59,16.94A3.56,3.56,0,0,0,55,16.15,3,3,0,0,0,56,14H54.27a1.75,1.75,0,0,1-.46,1.16,1.8,1.8,0,0,1-1.22.37,1.48,1.48,0,0,1-1.32-.64,3.78,3.78,0,0,1-.42-2V12.2a3.55,3.55,0,0,1,.45-1.95,1.49,1.49,0,0,1,1.31-.63,1.72,1.72,0,0,1,1.21.37,1.8,1.8,0,0,1,.46,1.2H56A3.29,3.29,0,0,0,55,9a3.88,3.88,0,0,0-4.25-.29,3.2,3.2,0,0,0-1.24,1.44,5.06,5.06,0,0,0-.43,2.17v.52a4.52,4.52,0,0,0,.94,3A3.2,3.2,0,0,0,52.59,16.94Z"/><polygon class="cls-1" points="63.82 16.83 63.82 8.29 62.06 8.29 62.06 13.92 58.64 8.29 56.88 8.29 56.88 16.83 58.64 16.83 58.64 11.21 62.06 16.83 63.82 16.83"/><path class="cls-1" d="M72.06,12.37a5,5,0,0,0-.46-2.21,3.36,3.36,0,0,0-1.28-1.47,3.78,3.78,0,0,0-3.79,0,3.36,3.36,0,0,0-1.28,1.47,5,5,0,0,0-.46,2.22v.42A5,5,0,0,0,65.26,15a3.32,3.32,0,0,0,1.29,1.45,3.78,3.78,0,0,0,3.79,0A3.33,3.33,0,0,0,71.61,15a5.1,5.1,0,0,0,.45-2.21Zm-1.78.41a3.75,3.75,0,0,1-.48,2,1.68,1.68,0,0,1-2.74,0,3.56,3.56,0,0,1-.49-2v-.41a3.6,3.6,0,0,1,.49-2,1.7,1.7,0,0,1,2.74,0,3.57,3.57,0,0,1,.48,2Z"/><polygon class="cls-1" points="78.53 15.41 74.79 15.41 74.79 8.29 73.04 8.29 73.04 16.83 78.53 16.83 78.53 15.41"/><path class="cls-1" d="M82.25,16.94a3.56,3.56,0,0,0,1.9-.51A3.33,3.33,0,0,0,85.42,15a5.1,5.1,0,0,0,.45-2.21v-.38a5,5,0,0,0-.46-2.21,3.36,3.36,0,0,0-1.28-1.47,3.78,3.78,0,0,0-3.79,0,3.36,3.36,0,0,0-1.28,1.47,5,5,0,0,0-.46,2.22v.42A5.17,5.17,0,0,0,79.06,15a3.44,3.44,0,0,0,1.29,1.45A3.58,3.58,0,0,0,82.25,16.94Zm-1.87-4.6a3.6,3.6,0,0,1,.49-2,1.7,1.7,0,0,1,2.74,0,3.57,3.57,0,0,1,.48,2v.41a3.75,3.75,0,0,1-.48,2,1.69,1.69,0,0,1-2.75,0,3.65,3.65,0,0,1-.48-2Z"/><path class="cls-1" d="M88.39,16.46a3.82,3.82,0,0,0,1.94.48,5.56,5.56,0,0,0,1.92-.31,3.09,3.09,0,0,0,1.35-.88V12.34H90.24v1.3h1.6v1.47a2,2,0,0,1-1.41.42,1.77,1.77,0,0,1-1.5-.68,3.4,3.4,0,0,1-.51-2v-.55a3.53,3.53,0,0,1,.48-2,1.54,1.54,0,0,1,1.36-.67A1.46,1.46,0,0,1,91.88,11H93.6a3.13,3.13,0,0,0-1-2.11,4.11,4.11,0,0,0-4.27-.23,3.24,3.24,0,0,0-1.25,1.43,5.38,5.38,0,0,0-.43,2.21v.58a5.06,5.06,0,0,0,.47,2.17A3.19,3.19,0,0,0,88.39,16.46Z"/><rect class="cls-1" x="94.83" y="8.29" width="1.76" height="8.53"/><path class="cls-1" d="M99.76,15.07h3.08l.59,1.76h1.87l-3.19-8.54h-1.63L97.3,16.83h1.87Zm1.53-4.62,1.07,3.19h-2.13Z"/><path class="cls-1" d="M113.14,16.31a3.55,3.55,0,0,0,1.38-1.44,4.5,4.5,0,0,0,.49-2.11v-.39a4.49,4.49,0,0,0-.5-2.13,3.57,3.57,0,0,0-1.39-1.44,4,4,0,0,0-2-.51h-2.63v8.54h2.65A4.12,4.12,0,0,0,113.14,16.31Zm-2.9-.9V9.72h.87a1.9,1.9,0,0,1,1.58.67,3.09,3.09,0,0,1,.53,2v.45a3,3,0,0,1-.55,1.93,1.9,1.9,0,0,1-1.58.67Z"/><path class="cls-1" d="M118.32,8.29l-3.18,8.54H117l.59-1.76h3.08l.59,1.76h1.87l-3.2-8.54Zm-.25,5.35,1.06-3.19,1.07,3.19Z"/><rect class="cls-1" x="126.43" y="8.29" width="1.76" height="8.53"/><polygon class="cls-1" points="134.71 13.92 131.28 8.29 129.52 8.29 129.52 16.83 131.28 16.83 131.28 11.21 134.7 16.83 136.46 16.83 136.46 8.29 134.71 8.29 134.71 13.92"/><polygon class="cls-1" points="137.69 16.83 139.45 16.83 139.45 13.34 142.83 13.34 142.83 11.92 139.45 11.92 139.45 9.72 143.25 9.72 143.25 8.29 137.69 8.29 137.69 16.83"/><path class="cls-1" d="M149.24,8.69a3.78,3.78,0,0,0-3.79,0,3.38,3.38,0,0,0-1.29,1.47,5.18,5.18,0,0,0-.45,2.22v.42a5,5,0,0,0,.46,2.18,3.44,3.44,0,0,0,1.29,1.45,3.79,3.79,0,0,0,3.8,0A3.39,3.39,0,0,0,150.53,15a5.1,5.1,0,0,0,.45-2.21v-.38a5.16,5.16,0,0,0-.46-2.21A3.36,3.36,0,0,0,149.24,8.69Zm-.05,4.09a3.58,3.58,0,0,1-.48,2,1.68,1.68,0,0,1-2.74,0,3.65,3.65,0,0,1-.48-2v-.41a3.6,3.6,0,0,1,.49-2,1.69,1.69,0,0,1,2.73,0,3.57,3.57,0,0,1,.48,2Z"/><path class="cls-1" d="M157.9,12.33a2.66,2.66,0,0,0,.37-1.46,2.31,2.31,0,0,0-.82-1.9,3.56,3.56,0,0,0-2.33-.68H152v8.54h1.76V13.7h1.4l1.6,3.13h1.89v-.09l-1.85-3.48A2.64,2.64,0,0,0,157.9,12.33Zm-1.75-.39a1.41,1.41,0,0,1-1,.34h-1.42V9.72h1.41a1.4,1.4,0,0,1,1,.34,1.29,1.29,0,0,1,.35.95A1.17,1.17,0,0,1,156.15,11.94Z"/><polygon class="cls-1" points="163.8 14.48 161.61 8.29 159.31 8.29 159.31 16.83 161.07 16.83 161.07 14.49 160.89 10.47 163.19 16.83 164.4 16.83 166.7 10.47 166.52 14.49 166.52 16.83 168.29 16.83 168.29 8.29 165.98 8.29 163.8 14.48"/><path class="cls-1" d="M172.08,8.29l-3.17,8.54h1.87l.58-1.76h3.08l.6,1.76h1.87l-3.2-8.54Zm-.24,5.35,1.06-3.19L174,13.64Z"/><path class="cls-1" d="M179.25,10.25a1.5,1.5,0,0,1,1.32-.63,1.68,1.68,0,0,1,1.2.37,1.8,1.8,0,0,1,.46,1.2H184A3.29,3.29,0,0,0,183,9a3.89,3.89,0,0,0-4.26-.29,3.18,3.18,0,0,0-1.23,1.44,5.06,5.06,0,0,0-.44,2.17v.52a4.58,4.58,0,0,0,.94,3,3.09,3.09,0,0,0,1.94,1.05l0-.1h1.27l0,.11a3.34,3.34,0,0,0,1.79-.75A3,3,0,0,0,184,14h-1.76a1.7,1.7,0,0,1-.46,1.16,1.78,1.78,0,0,1-1.22.37,1.48,1.48,0,0,1-1.32-.64,3.78,3.78,0,0,1-.42-2V12.2A3.55,3.55,0,0,1,179.25,10.25Z"/><path class="cls-1" d="M179.9,16.89l-.16.74a2,2,0,0,1,.64.12.33.33,0,0,1,.19.34c0,.31-.22.47-.65.47l0,1a2.61,2.61,0,0,0,1.51-.38,1.19,1.19,0,0,0,.53-1,.94.94,0,0,0-.88-1l0-.23a4.26,4.26,0,0,1-.63,0A4.48,4.48,0,0,1,179.9,16.89Z"/><path class="cls-1" d="M179.92,16.79l0,.1a4.48,4.48,0,0,0,.64.05,4.26,4.26,0,0,0,.63,0l0-.11Z"/><path class="cls-1" d="M187.29,8.29l-3.18,8.54H186l.59-1.76h3.08l.59,1.76h1.87l-3.19-8.54ZM187,13.64l1.06-3.19,1.07,3.19Z"/><path class="cls-1" d="M187,7.29a.52.52,0,0,1,.35-.14,1.23,1.23,0,0,1,.29,0,3.06,3.06,0,0,1,.44.21,2.68,2.68,0,0,0,.48.21,1.62,1.62,0,0,0,.4.05,1.2,1.2,0,0,0,.94-.45,1.64,1.64,0,0,0,.39-1.11l-1-.06a.54.54,0,0,1-.15.41.47.47,0,0,1-.35.14,1.36,1.36,0,0,1-.29,0,2.44,2.44,0,0,1-.48-.21,4.68,4.68,0,0,0-.51-.21,1.15,1.15,0,0,0-.33,0,1.2,1.2,0,0,0-.94.45,1.66,1.66,0,0,0-.38,1.11l1,.06A.61.61,0,0,1,187,7.29Z"/><path class="cls-1" d="M199,10.16a3.38,3.38,0,0,0-1.29-1.47,3.78,3.78,0,0,0-3.79,0,3.36,3.36,0,0,0-1.28,1.47,5.18,5.18,0,0,0-.46,2.22v.42a5,5,0,0,0,.47,2.18A3.32,3.32,0,0,0,194,16.43a3.78,3.78,0,0,0,3.79,0A3.33,3.33,0,0,0,199,15a5.1,5.1,0,0,0,.45-2.21v-.38A5.16,5.16,0,0,0,199,10.16Zm-1.33,2.62a3.75,3.75,0,0,1-.48,2,1.68,1.68,0,0,1-2.74,0,3.65,3.65,0,0,1-.48-2v-.41a3.52,3.52,0,0,1,.48-2,1.7,1.7,0,0,1,2.74,0,3.57,3.57,0,0,1,.48,2Z"/><path class="cls-1" d="M37.72,22.6q0,.78-.75.78a.76.76,0,0,1-.56-.19.83.83,0,0,1-.2-.61V19.76h-.88V22.6a1.44,1.44,0,0,0,.45,1.09,1.72,1.72,0,0,0,1.19.39,1.68,1.68,0,0,0,1.19-.4,1.45,1.45,0,0,0,.44-1.11V19.76h-.88Z"/><polygon class="cls-1" points="41.77 22.57 40.05 19.76 39.17 19.76 39.17 24.03 40.05 24.03 40.05 21.22 41.76 24.03 42.64 24.03 42.64 19.76 41.77 19.76 41.77 22.57"/><rect class="cls-1" x="43.31" y="19.76" width="0.88" height="4.27"/><polygon class="cls-1" points="46.43 22.97 45.47 19.76 44.5 19.76 45.98 24.03 46.89 24.03 48.38 19.76 47.4 19.76 46.43 22.97"/><polygon class="cls-1" points="49.51 22.18 51.2 22.18 51.2 21.49 49.51 21.49 49.51 20.47 51.48 20.47 51.48 19.76 48.63 19.76 48.63 24.03 51.49 24.03 51.49 23.32 49.51 23.32 49.51 22.18"/><path class="cls-1" d="M54.83,21.78a1.39,1.39,0,0,0,.19-.73,1.16,1.16,0,0,0-.41-.95,1.79,1.79,0,0,0-1.17-.34H51.85V24h.88V22.46h.7l.8,1.57h1v0l-.93-1.75A1.3,1.3,0,0,0,54.83,21.78Zm-.87-.2a.73.73,0,0,1-.52.17h-.71V20.47h.71a.71.71,0,0,1,.53.18.64.64,0,0,1,.17.47A.59.59,0,0,1,54,21.58Z"/><path class="cls-1" d="M57.05,20.4a.73.73,0,0,1,.51.17.54.54,0,0,1,.19.45h.88a1.27,1.27,0,0,0-.2-.69,1.28,1.28,0,0,0-.56-.46,1.86,1.86,0,0,0-.81-.17,2.14,2.14,0,0,0-.82.15,1.38,1.38,0,0,0-.56.43,1,1,0,0,0-.19.61A1.18,1.18,0,0,0,56.21,22a3.56,3.56,0,0,0,.73.29,2.8,2.8,0,0,1,.63.28.46.46,0,0,1,.18.39.4.4,0,0,1-.18.35.79.79,0,0,1-.49.13c-.56,0-.84-.23-.84-.71h-.88a1.28,1.28,0,0,0,.21.73,1.46,1.46,0,0,0,.61.5,2.37,2.37,0,0,0,.9.17,1.85,1.85,0,0,0,1.13-.31,1,1,0,0,0,.42-.87,1.14,1.14,0,0,0-.34-.83,2.74,2.74,0,0,0-1.1-.56,2.41,2.41,0,0,1-.61-.26.42.42,0,0,1-.21-.35.45.45,0,0,1,.17-.36A.84.84,0,0,1,57.05,20.4Z"/><rect class="cls-1" x="59.13" y="19.76" width="0.88" height="4.27"/><path class="cls-1" d="M63,20a2.1,2.1,0,0,0-1-.25H60.67V24H62a2.1,2.1,0,0,0,1-.26,1.84,1.84,0,0,0,.69-.72A2.27,2.27,0,0,0,63.93,22V21.8a2.16,2.16,0,0,0-.25-1.06A1.68,1.68,0,0,0,63,20Zm0,2a1.48,1.48,0,0,1-.28,1,.94.94,0,0,1-.79.34h-.42V20.47H62a.94.94,0,0,1,.79.34,1.53,1.53,0,0,1,.27,1Z"/><path class="cls-1" d="M65.59,19.76,64,24h.93l.3-.88h1.54l.29.88H68l-1.6-4.27Zm-.13,2.68.53-1.6.54,1.6Z"/><path class="cls-1" d="M70.56,20a2.06,2.06,0,0,0-1-.25H68.25V24h1.32a2.07,2.07,0,0,0,1-.26,1.71,1.71,0,0,0,.69-.72A2.16,2.16,0,0,0,71.51,22V21.8a2.27,2.27,0,0,0-.25-1.06A1.76,1.76,0,0,0,70.56,20Zm.06,2a1.54,1.54,0,0,1-.28,1,1,1,0,0,1-.79.34h-.42V20.47h.43a1,1,0,0,1,.79.34,1.53,1.53,0,0,1,.27,1Z"/><polygon class="cls-1" points="72.87 22.18 74.56 22.18 74.56 21.49 72.87 21.49 72.87 20.47 74.85 20.47 74.85 19.76 72 19.76 72 24.03 74.86 24.03 74.86 23.32 72.87 23.32 72.87 22.18"/><polygon class="cls-1" points="76.56 24.03 77.44 24.03 77.44 22.28 79.13 22.28 79.13 21.57 77.44 21.57 77.44 20.47 79.34 20.47 79.34 19.76 76.56 19.76 76.56 24.03"/><path class="cls-1" d="M83,24l-.92-1.75a1.3,1.3,0,0,0,.58-.46,1.39,1.39,0,0,0,.18-.73,1.13,1.13,0,0,0-.41-.95,1.75,1.75,0,0,0-1.16-.34H79.7V24h.88V22.46h.7l.8,1.57H83ZM81.8,21.58a.69.69,0,0,1-.51.17h-.71V20.47h.71a.68.68,0,0,1,.52.18.61.61,0,0,1,.17.47A.59.59,0,0,1,81.8,21.58Z"/><path class="cls-1" d="M84.61,19.76,83,24H84l.29-.88h1.54l.3.88H87l-1.6-4.27Zm-.12,2.68.53-1.6.53,1.6Z"/><polygon class="cls-1" points="83.02 24.03 83.03 24.03 83.03 24.02 83.02 24.03"/><polygon class="cls-1" points="89.86 22.57 88.15 19.76 87.27 19.76 87.27 24.03 88.15 24.03 88.15 21.22 89.86 24.03 90.74 24.03 90.74 19.76 89.86 19.76 89.86 22.57"/><path class="cls-1" d="M92.34,20.74a.76.76,0,0,1,.66-.32.86.86,0,0,1,.6.19.88.88,0,0,1,.23.6h.88a1.62,1.62,0,0,0-.52-1.11A1.71,1.71,0,0,0,93,19.7a1.81,1.81,0,0,0-.94.25,1.68,1.68,0,0,0-.62.72,2.65,2.65,0,0,0-.21,1.09V22a2.22,2.22,0,0,0,.47,1.51,1.59,1.59,0,0,0,1.29.55,1.77,1.77,0,0,0,1.2-.39,1.48,1.48,0,0,0,.51-1.08h-.88a.79.79,0,0,1-.22.57.86.86,0,0,1-.61.19.74.74,0,0,1-.66-.32,1.9,1.9,0,0,1-.21-1v-.33A1.68,1.68,0,0,1,92.34,20.74Z"/><rect class="cls-1" x="95.19" y="19.76" width="0.88" height="4.27"/><path class="cls-1" d="M98.24,20.4a.76.76,0,0,1,.52.17.57.57,0,0,1,.18.45h.88a1.26,1.26,0,0,0-.19-.69,1.34,1.34,0,0,0-.56-.46,1.92,1.92,0,0,0-.81-.17,2.1,2.1,0,0,0-.82.15,1.31,1.31,0,0,0-.56.43,1,1,0,0,0-.2.61A1.19,1.19,0,0,0,97.41,22a3.68,3.68,0,0,0,.72.29,2.72,2.72,0,0,1,.64.28.48.48,0,0,1,.17.39.41.41,0,0,1-.17.35.79.79,0,0,1-.49.13c-.57,0-.85-.23-.85-.71h-.88a1.28,1.28,0,0,0,.21.73,1.49,1.49,0,0,0,.62.5,2.37,2.37,0,0,0,.9.17,1.8,1.8,0,0,0,1.12-.31,1,1,0,0,0,.42-.87,1.1,1.1,0,0,0-.34-.83,2.69,2.69,0,0,0-1.09-.56,2.5,2.5,0,0,1-.62-.26.42.42,0,0,1-.21-.35.43.43,0,0,1,.18-.36A.82.82,0,0,1,98.24,20.4Z"/><path class="cls-1" d="M101.25,20.74a.76.76,0,0,1,.66-.32.86.86,0,0,1,.6.19.88.88,0,0,1,.23.6h.88a1.58,1.58,0,0,0-.52-1.11,1.71,1.71,0,0,0-1.19-.4A1.83,1.83,0,0,0,101,20a1.66,1.66,0,0,0-.61.72,2.5,2.5,0,0,0-.22,1.09V22a2.27,2.27,0,0,0,.47,1.51,1.59,1.59,0,0,0,1.29.55,1.81,1.81,0,0,0,1.21-.39,1.56,1.56,0,0,0,.51-1.08h-.88a.84.84,0,0,1-.23.57.86.86,0,0,1-.61.19.74.74,0,0,1-.66-.32,1.9,1.9,0,0,1-.21-1v-.33A1.76,1.76,0,0,1,101.25,20.74Z"/><path class="cls-1" d="M105.27,19.76,103.68,24h.94l.29-.88h1.54l.3.88h.93l-1.59-4.27Zm-.12,2.68.53-1.6.53,1.6Z"/><polygon class="cls-1" points="110.52 22.57 108.81 19.76 107.93 19.76 107.93 24.03 108.81 24.03 108.81 21.22 110.52 24.03 111.4 24.03 111.4 19.76 110.52 19.76 110.52 22.57"/><path class="cls-1" d="M113.3,19.76,111.71,24h.93l.3-.88h1.54l.29.88h.94l-1.6-4.27Zm-.13,2.68.53-1.6.54,1.6Z"/></g></g></svg>